<?xml version="1.0" encoding="UTF-8"?>
<svg version="1.1" viewBox="0 0 24 24" xmlns="http://www.w3.org/2000/svg">
  <g fill="none" stroke="#ffffff" stroke-linecap="round" stroke-linejoin="round" stroke-width="2">
    <path transform="scale(1,-1)" d="m17-20a3 3 0 0 1 3 3" style="paint-order:fill markers stroke"/>
    <path transform="scale(-1,1)" d="m-7 4a3 3 0 0 1 3 3" style="paint-order:fill markers stroke"/>
    <path transform="scale(-1)" d="m-7-20a3 3 0 0 1 3 3" style="paint-order:fill markers stroke"/>
    <path d="m4 7v10" style="paint-order:fill markers stroke"/>
    <path d="m7 20h10" style="paint-order:fill markers stroke"/>
    <path d="m20 17v-4" style="paint-order:fill markers stroke"/>
    <path d="m7 4h4" style="paint-order:fill markers stroke"/>
    <path d="m21 3-5 5" style="paint-order:fill markers stroke"/>
    <path d="m20 13v-4" style="paint-order:fill markers stroke"/>
    <path d="m11 4h4" style="paint-order:fill markers stroke"/>
    <g stroke-linecap="round" stroke-linejoin="round" stroke-width="2">
      <path d="m10 9v6" style="paint-order:fill markers stroke"/>
      <path d="m8 16.5 2-1 2 1" style="paint-order:fill markers stroke"/>
      <path d="m8 7.5 2 1 2-1" style="paint-order:fill markers stroke"/>
    </g>
  </g>
</svg>
