<?xml version="1.0" encoding="UTF-8"?>
<svg version="1.1" viewBox="0 0 24 24" xmlns="http://www.w3.org/2000/svg">
  <g fill="none" stroke="#ffffff" stroke-linecap="round" stroke-linejoin="round" stroke-width="2">
    <path d="M 4,8 A 4,4 0 0 1 5.1715729,5.1715729 4,4 0 0 1 8,4" style="paint-order:fill markers stroke"/>
    <path transform="scale(1,-1)" d="m4-16a4 4 0 0 1 4-4" style="paint-order:fill markers stroke"/>
    <path transform="scale(-1)" d="m-20-16a4 4 0 0 1 4-4" style="paint-order:fill markers stroke"/>
    <path transform="scale(-1,1)" d="m-20 8a4 4 0 0 1 4-4" style="paint-order:fill markers stroke"/>
    <path d="m4 8v8" style="paint-order:fill markers stroke"/>
    <path d="m8 20h8" style="paint-order:fill markers stroke"/>
    <path d="m20 16v-8" style="paint-order:fill markers stroke"/>
    <path d="m8 4h8" style="paint-order:fill markers stroke"/>
    <path d="m4 8h16" style="paint-order:fill markers stroke"/>
    <path d="m12 4v16" style="paint-order:fill markers stroke"/>
    <path d="m4 14h16" style="paint-order:fill markers stroke"/>
  </g>
</svg>
